<svg xmlns="http://www.w3.org/2000/svg" width="28" height="18.667" viewBox="0 0 28 18.667">
    <g id="pay" transform="translate(0 0)">
        <path id="Path_71" d="M25.083,85.333H2.917A2.921,2.921,0,0,0,0,88.25v12.833A2.921,2.921,0,0,0,2.917,104H25.083A2.921,2.921,0,0,0,28,101.083V88.25A2.921,2.921,0,0,0,25.083,85.333Zm1.75,15.75a1.752,1.752,0,0,1-1.75,1.75H2.917a1.752,1.752,0,0,1-1.75-1.75V88.25a1.752,1.752,0,0,1,1.75-1.75H25.083a1.752,1.752,0,0,1,1.75,1.75v12.833Z" transform="translate(0 -85.333)" fill="#fff"/>
        <path id="Path_72" d="M27.417,149.333H.583a.584.584,0,0,0-.583.583v3.5A.584.584,0,0,0,.583,154H27.417a.584.584,0,0,0,.583-.583v-3.5A.584.584,0,0,0,27.417,149.333Zm-.583,3.5H1.167V150.5H26.833v2.333Z" transform="translate(0 -145.833)" fill="#fff"/>
        <path id="Path_73" d="M71.583,298.667h-7a.583.583,0,1,0,0,1.167h7a.583.583,0,1,0,0-1.167Z" transform="translate(-60.5 -287)" fill="#fff"/>
        <path id="Path_74" d="M71.583,341.333h-7a.583.583,0,0,0,0,1.167h7a.583.583,0,1,0,0-1.167Z" transform="translate(-60.5 -327.333)" fill="#fff"/>
        <path id="Path_75" d="M365.584,277.333h-1.167a1.752,1.752,0,0,0-1.75,1.75v1.167a1.752,1.752,0,0,0,1.75,1.75h1.167a1.752,1.752,0,0,0,1.75-1.75v-1.167A1.752,1.752,0,0,0,365.584,277.333Zm.583,2.917a.584.584,0,0,1-.583.583h-1.167a.584.584,0,0,1-.583-.583v-1.167a.584.584,0,0,1,.583-.583h1.167a.584.584,0,0,1,.583.583Z" transform="translate(-342.834 -266.833)" fill="#fff"/>
    </g>
</svg>
