<svg xmlns="http://www.w3.org/2000/svg" width="16.164" height="18.94" viewBox="0 0 16.164 18.94">
    <g id="paypal" transform="translate(0 0)">
        <path id="Path_76" d="M145.513,116.318a.394.394,0,0,0-.592.3c-.014.129-.036.259-.064.395-.773,3.506-2.324,5.212-4.744,5.212h-3.551a.4.4,0,0,0-.386.316l-1.184,5.549-.211,1.413a1.184,1.184,0,0,0,1.158,1.4h2.375a1.178,1.178,0,0,0,1.148-.9l.96-3.836h2.059c2.43,0,4.109-1.937,4.729-5.455h0A4.124,4.124,0,0,0,145.513,116.318Z" transform="translate(-131.163 -111.963)" fill="#03a9f4"/>
        <path id="Path_77" d="M51.12,1.407A4.152,4.152,0,0,0,48.042,0H41.508a1.963,1.963,0,0,0-1.952,1.678L37.526,15.213a1.184,1.184,0,0,0,1.172,1.36h3.03a.4.4,0,0,0,.386-.316l1.117-5.208h3.236c2.808,0,4.663-1.963,5.515-5.84a4.645,4.645,0,0,0,.079-.468A4.074,4.074,0,0,0,51.12,1.407Z" transform="translate(-37.513 0)" fill="#283593"/>
    </g>
</svg>
