<svg viewBox="0 0 554.58 104.37" xmlns="http://www.w3.org/2000/svg"><path d="m450.58.02h104v31.93h-104z" fill="#18122c"/><path d="m554.58 31.48c0 25.84-23.29 46.79-52 46.79s-52-20.95-52-46.79z" fill="#18122c"/><path d="m479.88.02h44.35v104.35h-44.35z" fill="#bf2633"/><path d="m115.1 38.87h45.91v65.47h-45.91z" fill="#18122c"/><path d="m283.1 0h45.91v26.09h-45.91z" fill="#bf2633"/><path d="m115.1 0h45.91v26.09h-45.91z" fill="#bf2633"/><path d="m283.1 38.87h45.91v65.47h-45.91z" fill="#18122c"/><path d="m221.84 104.35-26.26-52.18-26.27-52.17h52.53 52.53l-26.27 52.17z" fill="#bf2633"/><path d="m366.05 26.09h47.48v78.26h-47.48z" fill="#18122c"/><path d="m337.88 0h103.83v26.09h-103.83z" fill="#bf2633"/><path d="m366.05 0h47.48v26.09h-47.48z" fill="#18122c" fill-opacity=".5"/><path d="m52.53 104.35-26.27-52.18-26.26-52.17h52.53 52.53l-26.27 52.17z" fill="#bf2633"/><g fill="#18122c"><path d="m450.58 31.47v.46z" opacity=".5"/><path d="m554.58 31.47v.46c0-.15 0-.31 0-.46z" opacity=".5"/><path d="m554.58 0v31.47.46c-.27 25.63-23.44 46.33-52 46.33s-51.72-20.7-52-46.33c0-.15 0-.31 0-.46v-31.47z" opacity=".5"/></g></svg>