<svg viewBox="0 0 629.57 107.16" xmlns="http://www.w3.org/2000/svg"><g fill="#18122c"><path d="m42.09 33.72 21.04 36.45 21.05 36.45h-42.09-42.09l21.05-36.45z"/><path d="m90.4 75.33-21.05-36.45-21.04-36.45h42.09 42.09l-21.05 36.45z"/><path d="m137.96 34.25 21.04 36.45 21.05 36.46h-42.09-42.09l21.04-36.46z"/><path d="m190.09 38.88h45.91v65.47h-45.91z"/></g><path d="m358.09.01h45.91v26.09h-45.91z" fill="#bf2633"/><path d="m190.09.01h45.91v26.09h-45.91z" fill="#bf2633"/><path d="m358.09 38.88h45.91v65.47h-45.91z" fill="#18122c"/><path d="m296.83 104.36-26.26-52.18-26.27-52.17h52.53 52.53l-26.26 52.17z" fill="#bf2633"/><path d="m441.05 26.1h47.48v78.26h-47.48z" fill="#18122c"/><path d="m412.87.01h103.83v26.09h-103.83z" fill="#bf2633"/><path d="m441.05.01h47.48v26.09h-47.48z" fill="#18122c" opacity=".5"/><path d="m526.57 31.47v1.06z" fill="#18122c" opacity=".5"/><path d="m525.57.02h104v31.93h-104z" fill="#18122c"/><path d="m629.57 31.48c0 25.84-23.28 46.79-52 46.79s-52-20.95-52-46.79z" fill="#18122c"/><path d="m554.87.02h44.35v104.35h-44.35z" fill="#bf2633"/><path d="m629.57 31.47v.46c0-.15 0-.31 0-.46z" fill="#18122c" opacity=".5"/><path d="m629.57 0v31.47.46c-.27 25.63-23.44 46.33-52 46.33s-51.72-20.7-52-46.33c0-.15 0-.31 0-.46v-31.47z" fill="#18122c" opacity=".5"/></svg>